<svg height="511pt" viewBox="1 0 511.99999 511" width="511pt" xmlns="http://www.w3.org/2000/svg"><path d="m507.433594 245.0625-90.535156-90.535156-22.628907 22.628906 63.214844 63.21875h-185.421875v-185.421875l63.21875 63.214844 22.628906-22.628907-90.535156-90.535156c-6.347656-6.003906-16.28125-6.003906-22.628906 0l-90.535156 90.535156 22.628906 22.628907 63.214844-63.214844v185.421875h-185.421876l63.21875-63.21875-22.632812-22.628906-90.535156 90.535156c-6.246094 6.25-6.246094 16.378906 0 22.628906l90.535156 90.535156 22.632812-22.628906-63.21875-63.214844h185.421876v185.421876l-63.214844-63.21875-22.628906 22.632812 90.535156 90.53125c6.25 6.25 16.378906 6.25 22.628906 0l90.535156-90.53125-22.628906-22.632812-63.21875 63.21875v-185.421876h185.421875l-63.214844 63.214844 22.628907 22.628906 90.535156-90.535156c6.132812-6.226562 6.042968-16.3125 0-22.628906zm0 0"/></svg>